<svg width="62" height="62" viewBox="0 0 62 62" fill="none" xmlns="http://www.w3.org/2000/svg">
<g clip-path="url(#clip0_14_42)">
<path fill-rule="evenodd" clip-rule="evenodd" d="M58.05 28.6698C57.43 27.6882 56.19 27.6623 55.0275 27.8173C50.2175 28.5886 45.7299 30.7243 42.098 33.9708C39.6668 35.6437 37.7007 37.9071 36.3844 40.5483C35.068 43.1896 34.4446 46.1221 34.5727 49.0704C34.5331 51.0058 34.8754 52.9301 35.5802 54.7331C33.8987 56.7815 32.3696 58.9505 31.0051 61.2224C31.0051 61.8166 31.7543 62.3074 32.6068 61.7649C35.6353 58.6186 38.484 55.3041 41.1395 51.8372C43.4259 48.4473 45.5233 44.9338 47.4222 41.3127C47.4791 41.1861 47.501 41.0467 47.4856 40.9088C47.4702 40.771 47.418 40.6398 47.3346 40.5289C47.2512 40.4181 47.1396 40.3317 47.0114 40.2787C46.8833 40.2257 46.7432 40.2081 46.6059 40.2277C46.4215 40.2539 46.2528 40.3456 46.1305 40.486C36.1227 53.6972 37.5461 51.863 36.4353 53.413C36.4084 52.9829 36.4084 52.5515 36.4353 52.1213C35.9799 49.6747 36.1204 47.1543 36.8447 44.7734C37.5691 42.3925 38.8562 40.221 40.597 38.4426C45.7689 33.2707 53.2915 30.4523 55.4125 30.6848C55.4125 38.8301 55.4125 38.0551 55.2316 39.3467L51.2507 41.9327C50.7857 42.191 49.6232 42.501 49.2874 43.4827C48.7165 45.1903 50.8115 45.3478 52.1807 46.717C48.8973 48.6287 48.484 48.0087 47.4739 48.732C47.3001 48.8265 47.1467 48.9545 47.0226 49.1087C46.8986 49.2628 46.8063 49.4399 46.751 49.6299C46.6958 49.8199 46.6787 50.0189 46.7008 50.2155C46.7229 50.4121 46.7837 50.6024 46.8797 50.7754C47.6995 51.5659 48.5615 52.3073 49.4656 52.9997C42.5371 58.8173 40.597 56.8023 39.4345 57.5773C39.2794 57.683 39.1609 57.8343 39.0953 58.0102C39.0298 58.1861 39.0205 58.3781 39.0687 58.5595C39.1169 58.741 39.2202 58.903 39.3644 59.0232C39.5086 59.1434 39.6866 59.2159 39.8737 59.2307C45.0455 60.0573 51.7674 54.0614 51.9999 53.4647C52.4132 52.3797 51.1474 51.5272 49.959 50.4422C51.6746 49.774 53.349 49.0045 54.9733 48.1378C55.1836 48.0341 55.3651 47.8802 55.5017 47.6896C55.6383 47.499 55.7258 47.2777 55.7565 47.0453C55.7871 46.8128 55.76 46.5763 55.6775 46.3569C55.5949 46.1374 55.4595 45.9417 55.2833 45.787L53.165 43.8986C56.0841 42.2969 57.5592 41.5219 58.0759 40.0985C58.3859 39.3235 58.8767 29.9357 58.05 28.6698Z" fill="#020202"/>
<path fill-rule="evenodd" clip-rule="evenodd" d="M28.5742 49.0704C9.28449 49.3546 17.4814 49.3804 9.05199 48.3729C7.78616 48.2438 7.21782 47.2879 6.85616 46.1745C6.18449 43.9761 6.36532 43.5886 6.67532 22.0488C6.30544 17.7342 6.48775 13.3901 7.21782 9.12175C7.86366 6.53584 7.21782 5.55417 10.8862 5.60584C10.8862 6.48417 10.5503 9.81925 10.6278 10.3876C10.8603 12.3535 12.803 12.0668 13.5522 12.2734C17.4814 13.206 18.9565 10.2584 18.724 6.14834C19.9537 6.51775 21.266 6.51775 22.4957 6.14834C22.4957 6.4325 22.2373 9.71592 22.3148 10.1809C22.5473 12.1443 24.4642 11.8343 25.2392 12.0409C29.1167 12.9735 30.5918 10.1293 30.411 6.09667C32.1677 6.61334 32.2968 6.53584 34.8827 5.94167C34.8827 6.2 34.6761 9.50925 34.7277 9.81925C34.7492 10.1982 34.8911 10.5604 35.1327 10.8532C35.3743 11.1459 35.7031 11.3538 36.0711 11.4468C40.2096 12.5602 42.6405 11.4468 42.7697 6.97759C43.6377 6.99825 44.4988 7.07575 45.353 7.21009C45.9756 7.21009 46.4922 7.41675 46.5439 7.93342L47.4997 25.8514C47.4698 26.02 47.4964 26.1938 47.5754 26.3458C47.6544 26.4978 47.7813 26.6194 47.9365 26.6918C48.0917 26.7643 48.2664 26.7835 48.4336 26.7464C48.6008 26.7094 48.7511 26.6181 48.8612 26.4869C48.9336 26.3996 48.9859 26.2974 49.0145 26.1875C49.043 26.0777 49.0471 25.963 49.0265 25.8514C50.1632 19.7754 50.1632 13.5418 49.0265 7.46584C48.4065 4.8825 45.6139 4.8825 42.873 5.115C42.6266 3.66298 42.156 2.25809 41.478 0.95067C41.11 0.618387 40.6789 0.363579 40.2104 0.201431C39.7418 0.0392821 39.2454 -0.0268894 38.7508 0.00685919C38.2561 0.0406078 37.7733 0.173586 37.3311 0.39787C36.8889 0.622153 36.4964 0.933153 36.177 1.31234C35.674 2.10215 35.3235 2.97928 35.1437 3.89825C33.4213 3.48716 31.6137 3.6226 29.9718 4.28575C29.8883 3.24358 29.6077 2.22671 29.1452 1.28909C28.7713 0.940696 28.3297 0.673072 27.8478 0.502906C27.3659 0.332741 26.8542 0.263684 26.3444 0.300041C25.8347 0.336399 25.3379 0.477392 24.8851 0.714227C24.4322 0.951062 24.033 1.27866 23.7124 1.67659C23.2921 2.35372 22.9866 3.09566 22.8082 3.87242C21.3242 3.57923 19.7888 3.68622 18.3597 4.18242C18.2483 3.2197 17.9685 2.28406 17.5331 1.41825C17.167 0.97992 16.6823 0.656393 16.1371 0.486414C15.5919 0.316435 15.0092 0.307207 14.4589 0.459837C12.3871 0.769837 11.6121 2.19067 11.1471 4.20825C9.76869 3.947 8.34234 4.17544 7.11449 4.85409C5.79699 5.73242 5.71949 7.595 5.35524 8.78592C4.35 13.1585 3.90725 17.6415 4.03774 22.1263C3.54691 34.255 3.67607 30.3748 3.49524 39.4243C3.49524 44.3377 3.49524 50.6204 8.81949 51.0079C17.4556 51.6538 9.12949 51.9638 28.6001 50.8788C28.7188 50.8771 28.8361 50.852 28.9451 50.805C29.0541 50.758 29.1529 50.69 29.2356 50.6048C29.3184 50.5196 29.3836 50.419 29.4274 50.3087C29.4713 50.1983 29.493 50.0804 29.4913 49.9617C29.4896 49.8429 29.4646 49.7257 29.4176 49.6166C29.3706 49.5076 29.3025 49.4089 29.2174 49.3261C29.1322 49.2434 29.0316 49.1782 28.9212 49.1343C28.8109 49.0904 28.693 49.0687 28.5742 49.0704ZM37.3137 4.49242C37.5203 0.64067 39.8996 1.59909 40.0546 2.34825C40.3568 4.25217 40.3129 6.19742 39.9254 8.08584C39.5121 9.50925 38.7887 9.17084 37.3421 9.145C37.411 7.595 37.4024 6.045 37.3162 4.495M25.42 2.66084C25.9367 1.6275 27.435 2.325 27.6417 2.2475C28.0462 4.29612 28.0462 6.40406 27.6417 8.45267C27.4092 9.22767 26.9442 9.77017 25.9625 9.486H25.0325C25.0325 9.176 25.1875 8.84017 25.1875 8.711C24.8374 6.70046 24.9166 4.63858 25.42 2.66084ZM13.8105 2.79C14.3272 1.75667 15.8255 2.45417 16.0322 2.37667C16.4222 4.4175 16.4222 6.51259 16.0322 8.556C15.7997 9.331 15.3347 9.89934 14.353 9.58934H13.423C13.423 9.27934 13.578 8.9435 13.578 8.81434C13.2316 6.81218 13.3108 4.7595 13.8105 2.79Z" fill="#020202"/>
<path fill-rule="evenodd" clip-rule="evenodd" d="M39.0987 21.2996C39.2017 21.219 39.2876 21.1187 39.3513 21.0045C39.415 20.8904 39.4552 20.7646 39.4697 20.6347C39.4841 20.5047 39.4724 20.3732 39.4354 20.2478C39.3983 20.1225 39.3365 20.0057 39.2537 19.9046C38.7629 19.1037 24.5907 18.042 17.7139 18.3261C9.95613 18.8428 11.0695 20.1345 12.3095 20.4186C14.9988 21.2479 39.047 21.3512 39.0987 21.2996ZM31.0051 29.3156C30.2043 29.109 23.919 28.7731 22.7307 28.7731C21.5424 28.7731 12.803 29.0315 12.387 30.0131C12.3637 30.1215 12.3655 30.2337 12.3924 30.3412C12.4192 30.4487 12.4704 30.5486 12.542 30.6331C14.1101 31.2015 15.7635 31.4986 17.4297 31.5115C21.9557 31.8292 26.4998 31.7181 31.0051 31.1756C32.0643 31.1756 32.4001 29.6515 31.0051 29.3156ZM13.113 41.3126C17.0064 42.1757 21.0338 42.2459 24.955 41.5193C25.119 41.3547 25.2111 41.1317 25.2111 40.8993C25.2111 40.6669 25.119 40.4439 24.955 40.2793C22.5357 39.4909 19.999 39.1239 17.4555 39.1943C11.5345 39.556 10.3204 40.8476 13.113 41.3126Z" fill="#FDF6C8"/>
</g>
<defs>
<clipPath id="clip0_14_42">
<rect width="62" height="62" fill="white"/>
</clipPath>
</defs>
</svg>
