<svg width="37" height="37" viewBox="0 0 37 37" fill="none" xmlns="http://www.w3.org/2000/svg">
<path fill-rule="evenodd" clip-rule="evenodd" d="M11.1694 3.08331H25.8306C27.6174 3.08331 28.51 3.08331 29.2315 3.3346C29.9115 3.57622 30.5268 3.9711 31.0296 4.48867C31.5325 5.00624 31.9095 5.63261 32.1314 6.31927C32.375 7.06235 32.375 7.98119 32.375 9.8204V31.4099C32.375 32.7326 30.8565 33.4356 29.896 32.5569C29.6265 32.3079 29.2731 32.1696 28.9062 32.1696C28.5394 32.1696 28.186 32.3079 27.9165 32.5569L27.1719 33.2383C26.6998 33.6749 26.0805 33.9173 25.4375 33.9173C24.7945 33.9173 24.1752 33.6749 23.7031 33.2383C23.2311 32.8018 22.6117 32.5593 21.9688 32.5593C21.3258 32.5593 20.7064 32.8018 20.2344 33.2383C19.7623 33.6749 19.143 33.9173 18.5 33.9173C17.857 33.9173 17.2377 33.6749 16.7656 33.2383C16.2936 32.8018 15.6742 32.5593 15.0312 32.5593C14.3883 32.5593 13.7689 32.8018 13.2969 33.2383C12.8248 33.6749 12.2055 33.9173 11.5625 33.9173C10.9195 33.9173 10.3002 33.6749 9.82812 33.2383L9.0835 32.5569C8.81404 32.3079 8.46063 32.1696 8.09375 32.1696C7.72687 32.1696 7.37346 32.3079 7.104 32.5569C6.14354 33.4356 4.625 32.7326 4.625 31.4099V9.8204C4.625 7.98119 4.625 7.06081 4.86858 6.32081C5.33108 4.91327 6.40254 3.80944 7.76846 3.3346C8.48996 3.08331 9.38258 3.08331 11.1694 3.08331ZM10.7917 10.4062C10.485 10.4062 10.1909 10.528 9.97407 10.7449C9.75724 10.9617 9.63542 11.2558 9.63542 11.5625C9.63542 11.8691 9.75724 12.1632 9.97407 12.3801C10.1909 12.5969 10.485 12.7187 10.7917 12.7187H11.5625C11.8692 12.7187 12.1633 12.5969 12.3801 12.3801C12.5969 12.1632 12.7188 11.8691 12.7188 11.5625C12.7188 11.2558 12.5969 10.9617 12.3801 10.7449C12.1633 10.528 11.8692 10.4062 11.5625 10.4062H10.7917ZM16.1875 10.4062C15.8808 10.4062 15.5867 10.528 15.3699 10.7449C15.1531 10.9617 15.0312 11.2558 15.0312 11.5625C15.0312 11.8691 15.1531 12.1632 15.3699 12.3801C15.5867 12.5969 15.8808 12.7187 16.1875 12.7187H26.2083C26.515 12.7187 26.8091 12.5969 27.0259 12.3801C27.2428 12.1632 27.3646 11.8691 27.3646 11.5625C27.3646 11.2558 27.2428 10.9617 27.0259 10.7449C26.8091 10.528 26.515 10.4062 26.2083 10.4062H16.1875ZM10.7917 15.8021C10.485 15.8021 10.1909 15.9239 9.97407 16.1407C9.75724 16.3576 9.63542 16.6517 9.63542 16.9583C9.63542 17.265 9.75724 17.5591 9.97407 17.7759C10.1909 17.9927 10.485 18.1146 10.7917 18.1146H11.5625C11.8692 18.1146 12.1633 17.9927 12.3801 17.7759C12.5969 17.5591 12.7188 17.265 12.7188 16.9583C12.7188 16.6517 12.5969 16.3576 12.3801 16.1407C12.1633 15.9239 11.8692 15.8021 11.5625 15.8021H10.7917ZM16.1875 15.8021C15.8808 15.8021 15.5867 15.9239 15.3699 16.1407C15.1531 16.3576 15.0312 16.6517 15.0312 16.9583C15.0312 17.265 15.1531 17.5591 15.3699 17.7759C15.5867 17.9927 15.8808 18.1146 16.1875 18.1146H26.2083C26.515 18.1146 26.8091 17.9927 27.0259 17.7759C27.2428 17.5591 27.3646 17.265 27.3646 16.9583C27.3646 16.6517 27.2428 16.3576 27.0259 16.1407C26.8091 15.9239 26.515 15.8021 26.2083 15.8021H16.1875ZM10.7917 21.1979C10.485 21.1979 10.1909 21.3197 9.97407 21.5366C9.75724 21.7534 9.63542 22.0475 9.63542 22.3541C9.63542 22.6608 9.75724 22.9549 9.97407 23.1717C10.1909 23.3886 10.485 23.5104 10.7917 23.5104H11.5625C11.8692 23.5104 12.1633 23.3886 12.3801 23.1717C12.5969 22.9549 12.7188 22.6608 12.7188 22.3541C12.7188 22.0475 12.5969 21.7534 12.3801 21.5366C12.1633 21.3197 11.8692 21.1979 11.5625 21.1979H10.7917ZM16.1875 21.1979C15.8808 21.1979 15.5867 21.3197 15.3699 21.5366C15.1531 21.7534 15.0312 22.0475 15.0312 22.3541C15.0312 22.6608 15.1531 22.9549 15.3699 23.1717C15.5867 23.3886 15.8808 23.5104 16.1875 23.5104H26.2083C26.515 23.5104 26.8091 23.3886 27.0259 23.1717C27.2428 22.9549 27.3646 22.6608 27.3646 22.3541C27.3646 22.0475 27.2428 21.7534 27.0259 21.5366C26.8091 21.3197 26.515 21.1979 26.2083 21.1979H16.1875Z" fill="black"/>
</svg>
