<svg width="35" height="35" viewBox="0 0 35 35" fill="none" xmlns="http://www.w3.org/2000/svg">
<path d="M13.8906 17.5L24.6094 6.78125C24.9739 6.41667 25.1504 5.985 25.1387 5.48625C25.1271 4.9875 24.9385 4.55632 24.5729 4.19271C24.2074 3.8291 23.7757 3.6468 23.2779 3.64583C22.7801 3.64486 22.3489 3.82715 21.9844 4.19271L10.7917 15.4219C10.5 15.7135 10.2812 16.0417 10.1354 16.4062C9.98957 16.7708 9.91666 17.1354 9.91666 17.5C9.91666 17.8646 9.98957 18.2292 10.1354 18.5937C10.2812 18.9583 10.5 19.2865 10.7917 19.5781L22.0208 30.8073C22.3854 31.1719 22.8108 31.3483 23.2969 31.3367C23.783 31.325 24.2083 31.1364 24.5729 30.7708C24.9375 30.4053 25.1198 29.9736 25.1198 29.4758C25.1198 28.9781 24.9375 28.5469 24.5729 28.1823L13.8906 17.5Z" fill="black"/>
</svg>
