<svg width="59" height="59" viewBox="0 0 59 59" fill="none" xmlns="http://www.w3.org/2000/svg">
<path d="M48.5028 41.3295C48.5301 43.4681 48.1141 45.5891 47.2811 47.5589C44.5523 53.7195 37.6174 56.5417 29.5073 56.5417C19.0176 56.5417 10.5044 51.8389 10.5044 41.3295C10.5044 35.7097 12.9283 26.6778 16.8076 23.4107H42.1899C42.5504 23.7336 42.888 24.0786 43.2027 24.4457C46.4821 28.3028 48.5053 36.226 48.5053 41.3295" fill="white"/>
<path d="M47.2812 38.3697C44.5524 44.5303 37.6175 47.3524 29.5074 47.3524C20.5025 47.3524 12.9702 43.8715 11.0158 36.2408C10.6962 37.9223 10.5266 39.6185 10.507 41.3295C10.507 51.8389 19.0177 56.5417 29.505 56.5417C37.6175 56.5417 44.5549 53.7195 47.2812 47.559C48.1145 45.5884 48.5305 43.4665 48.503 41.3271C48.4784 39.6308 48.3014 37.9346 47.9793 36.2678C47.7996 36.985 47.5662 37.6876 47.2812 38.3697Z" fill="#E3E3E3"/>
<path d="M48.5029 41.3295C48.5301 43.4681 48.1141 45.5891 47.2811 47.5589C44.5523 53.7195 37.6174 56.5417 29.5073 56.5417C19.0176 56.5417 10.5044 51.8389 10.5044 41.3295C10.5044 35.7097 12.9283 26.6778 16.8076 23.4107H42.1899C42.5504 23.7336 42.888 24.0786 43.2027 24.4457C46.4821 28.3028 48.5053 36.226 48.5053 41.3295" stroke="#191919" stroke-linecap="round" stroke-linejoin="round"/>
<path d="M54.1964 35.191V43.4215C54.194 44.2322 53.9821 45.0285 53.5813 45.7331C53.1805 46.4377 52.6043 47.0267 51.9087 47.4431C51.2132 47.8594 50.4218 48.0888 49.6114 48.1091C48.801 48.1294 47.9991 47.9399 47.2836 47.5589C48.1166 45.5891 48.5326 43.4681 48.5053 41.3295C48.5053 36.226 46.4821 28.3003 43.1904 24.4457V24.4211C49.823 26.7491 54.1964 30.6997 54.1964 35.191Z" fill="white" stroke="#191919" stroke-linecap="round" stroke-linejoin="round"/>
<path d="M16.8174 23.4034C14.0666 25.7068 12.0458 30.9258 11.1043 35.7688C7.20043 33.4653 4.82568 30.4563 4.82568 27.14V16.5692C4.82568 15.3219 5.32115 14.1258 6.2031 13.2438C7.08504 12.3619 8.28122 11.8664 9.52847 11.8664C10.7757 11.8664 11.9719 12.3619 12.8539 13.2438C13.7358 14.1258 14.2313 15.3219 14.2313 16.5692V16.7585C14.2132 16.906 14.205 17.0543 14.2067 17.2034C14.2276 19.5335 15.1641 21.7613 16.8174 23.4034Z" fill="white"/>
<path d="M12.4785 30.7046C11.9801 28.8941 11.0085 27.249 9.66345 25.9385C8.31842 24.628 6.64858 23.6995 4.82568 23.2485V27.1474C4.82568 30.4637 7.20043 33.4727 11.1043 35.7761C11.4386 34.052 11.8967 32.3615 12.4785 30.7046Z" fill="#FFBC44"/>
<path d="M42.4259 10.6889V3.63344C42.4248 3.42854 42.3703 3.22746 42.2678 3.05C42.1654 2.87255 42.0185 2.72482 41.8416 2.62138C41.6648 2.51793 41.464 2.46232 41.2591 2.46003C41.0542 2.45774 40.8522 2.50885 40.6731 2.60832L32.7843 7.05544C31.6897 6.95971 30.5914 6.91296 29.4926 6.91532C28.2905 6.91532 27.2014 6.96448 26.2009 7.05544C26.2009 7.05544 25.869 7.35782 18.349 2.73369C18.1709 2.62319 17.9664 2.56234 17.7569 2.55745C17.5474 2.55255 17.3403 2.6038 17.1572 2.70587C16.9742 2.80793 16.8217 2.95711 16.7157 3.13793C16.6097 3.31875 16.554 3.52463 16.5544 3.73423V10.6913C15.0583 12.5354 14.23 14.8314 14.2042 17.2059C14.2115 18.4099 14.4646 19.5998 14.9481 20.7026C15.4316 21.8053 16.1353 22.7976 17.016 23.6187C17.8967 24.4398 18.9358 25.0723 20.0697 25.4774C21.2035 25.8826 22.4082 26.0518 23.6098 25.9748H35.368C36.5695 26.0518 37.7741 25.8826 38.9078 25.4774C40.0415 25.0722 41.0805 24.4397 41.961 23.6186C42.8415 22.7975 43.5449 21.8051 44.0282 20.7024C44.5114 19.5997 44.7642 18.4098 44.7711 17.2059C44.7467 14.832 43.9202 12.5336 42.4259 10.6889Z" fill="white"/>
<path d="M44.6187 15.4973C44.3067 13.7347 43.5522 12.0802 42.4259 10.6888V3.63342C42.4262 3.42796 42.3727 3.226 42.2706 3.04769C42.1685 2.86938 42.0214 2.72095 41.844 2.61722C41.6667 2.51349 41.4652 2.45808 41.2598 2.45652C41.0543 2.45495 40.852 2.50728 40.6731 2.6083L32.7843 7.05542C31.6897 6.9597 30.5914 6.91294 29.4926 6.9153H29.4287C28.6192 8.8953 28.5597 11.1025 29.2612 13.1233C29.9628 15.144 31.3772 16.8396 33.2394 17.8921C35.1016 18.9445 37.2838 19.2817 39.3768 18.8404C41.4699 18.3991 43.3301 17.2096 44.6089 15.4949L44.6187 15.4973Z" fill="#FFBC44"/>
<path d="M33.684 14.1698C34.099 13.4678 34.6898 12.886 35.398 12.4816C36.1062 12.0773 36.9075 11.8644 37.7231 11.8639M25.3208 14.1698C24.9043 13.4653 24.3109 12.8819 23.5993 12.4774C22.8878 12.0729 22.083 11.8614 21.2645 11.8639" stroke="#191919" stroke-linecap="round" stroke-linejoin="round"/>
<path d="M4.80603 20.0944H9.50882M42.4259 10.6888V3.63338C42.4248 3.42848 42.3703 3.2274 42.2679 3.04994C42.1654 2.87248 42.0185 2.72476 41.8416 2.62132C41.6648 2.51787 41.464 2.46226 41.2591 2.45997C41.0542 2.45768 40.8523 2.50879 40.6731 2.60826L32.7843 7.05538C31.6897 6.95965 30.5914 6.9129 29.4926 6.91526C28.2905 6.91526 27.2014 6.96442 26.2009 7.05538C26.2009 7.05538 25.869 7.35776 18.349 2.73363C18.1709 2.62313 17.9665 2.56228 17.7569 2.55739C17.5474 2.55249 17.3403 2.60374 17.1573 2.7058C16.9742 2.80787 16.8218 2.95705 16.7158 3.13787C16.6098 3.31869 16.554 3.52457 16.5544 3.73417V10.6913C15.0583 12.5354 14.23 14.8313 14.2042 17.2058C14.2115 18.4099 14.4646 19.5998 14.9481 20.7025C15.4316 21.8052 16.1353 22.7976 17.016 23.6186C17.8967 24.4397 18.9358 25.0722 20.0697 25.4774C21.2035 25.8825 22.4082 26.0517 23.6098 25.9747H35.368C36.5695 26.0518 37.7741 25.8825 38.9078 25.4773C40.0415 25.0722 41.0805 24.4396 41.961 23.6185C42.8415 22.7974 43.545 21.805 44.0282 20.7023C44.5114 19.5996 44.7642 18.4098 44.7712 17.2058C44.7468 14.8319 43.9202 12.5336 42.4259 10.6888Z" stroke="#191919" stroke-linecap="round" stroke-linejoin="round"/>
<path d="M27.14 36.317C24.4843 35.7755 22.0974 34.3326 20.3837 32.2327C18.67 30.1328 17.7349 27.5051 17.7368 24.7948C17.7336 24.5932 17.7385 24.3932 17.7516 24.1949M41.2311 24.2146C41.2311 24.4162 41.2606 24.5907 41.2606 24.7948C41.2637 27.4996 40.3336 30.1226 38.6273 32.2212C36.921 34.3199 34.5429 35.7656 31.8944 36.3145M16.8174 23.4034C14.0666 25.7068 12.0458 30.9259 11.1043 35.7688C7.20043 33.4653 4.82568 30.4563 4.82568 27.14V16.5692C4.82568 15.3219 5.32115 14.1258 6.2031 13.2438C7.08504 12.3619 8.28122 11.8664 9.52847 11.8664C10.7757 11.8664 11.9719 12.3619 12.8539 13.2438C13.7358 14.1258 14.2313 15.3219 14.2313 16.5692V16.7585C14.2132 16.906 14.205 17.0543 14.2067 17.2034C14.2276 19.5335 15.1641 21.7613 16.8174 23.4034Z" stroke="#191919" stroke-linecap="round" stroke-linejoin="round"/>
<path d="M29.4951 42.4308C30.4307 42.4308 31.328 42.0592 31.9896 41.3976C32.6512 40.736 33.0228 39.8387 33.0228 38.9031C33.0228 37.9675 32.6512 37.0702 31.9896 36.4087C31.328 35.7471 30.4307 35.3754 29.4951 35.3754C28.5595 35.3754 27.6622 35.7471 27.0007 36.4087C26.3391 37.0702 25.9674 37.9675 25.9674 38.9031C25.9674 39.8387 26.3391 40.736 27.0007 41.3976C27.6622 42.0592 28.5595 42.4308 29.4951 42.4308Z" fill="#FFEF5E" stroke="#191919" stroke-linecap="round" stroke-linejoin="round"/>
</svg>
