<svg width="54" height="54" viewBox="0 0 54 54" fill="none" xmlns="http://www.w3.org/2000/svg">
<path d="M27 4.5C14.6025 4.5 4.5 14.6025 4.5 27C4.5 39.3975 14.6025 49.5 27 49.5C39.3975 49.5 49.5 39.3975 49.5 27C49.5 14.6025 39.3975 4.5 27 4.5ZM36.405 28.7325L27 38.25L17.595 28.7325C16.417 27.5537 15.7552 25.9553 15.7552 24.2887C15.7552 22.6222 16.417 21.0238 17.595 19.845C20.0475 17.37 23.94 17.37 26.3925 19.845L27.0225 20.475L27.6525 19.845C30.105 17.37 33.975 17.37 36.45 19.845C37.628 21.0238 38.2898 22.6222 38.2898 24.2887C38.2898 25.9553 37.628 27.5537 36.45 28.7325H36.405Z" fill="black"/>
</svg>
