<svg width="68" height="68" viewBox="0 0 68 68" fill="none" xmlns="http://www.w3.org/2000/svg">
<g clip-path="url(#clip0_14_21)">
<path fill-rule="evenodd" clip-rule="evenodd" d="M49.521 49.9489C49.0223 49.9999 48.5312 50.0943 48.0477 50.2322C48.3176 49.3149 48.2848 48.335 47.9541 47.4378C47.6234 46.5406 47.0124 45.7739 46.2117 45.2512C45.7997 44.9189 45.3261 44.6713 44.8181 44.5227C44.31 44.3741 43.7776 44.3274 43.2515 44.3854C42.7254 44.4433 42.2159 44.6047 41.7524 44.8603C41.2889 45.1158 40.8805 45.4605 40.5507 45.8745C39.4768 47.3677 38.0857 48.603 36.4763 49.4955C34.8653 50.3803 33.1435 51.0463 31.3565 51.476C30.2515 51.3344 29.2343 51.1644 28.526 50.9944V50.711C28.4361 50.4354 28.379 50.1501 28.356 49.861C28.266 48.4085 27.9899 46.9734 27.5343 45.5912C27.3413 45.1745 27.063 44.8029 26.7175 44.5003C26.372 44.1977 25.9669 43.9709 25.5283 43.8345C25.0112 43.5142 24.4047 43.3687 23.7985 43.4198C23.1923 43.4708 22.6186 43.7156 22.1623 44.1179C21.454 44.9254 20.9667 45.9029 20.7457 46.9512C20.6777 47.6397 20.434 48.3027 20.0373 48.8722C19.5844 49.2463 19.0668 49.5344 18.5102 49.7222C17.2097 50.2039 15.6825 50.4872 14.4925 50.8839C13.9538 50.5294 13.4682 50.1001 13.0503 49.6089C13.362 48.8155 14.467 47.5689 14.7503 47.005L14.977 46.58C14.9956 46.4485 14.9956 46.3149 14.977 46.1834C14.977 45.1945 14.467 44.9395 13.9853 44.9112C13.0029 44.8977 12.0228 45.012 11.0698 45.2512C8.86267 45.6762 6.5705 46.4979 4.61834 46.8662C4.41602 46.9074 4.23664 47.0233 4.11589 47.1908C3.99514 47.3583 3.94187 47.5651 3.96667 47.77C4.00142 47.9762 4.11617 48.1604 4.28595 48.2824C4.45574 48.4044 4.66683 48.4545 4.87334 48.4217C6.85667 48.0817 9.17434 47.4867 11.3815 47.2317H12.0615C11.5798 48.0534 11.0132 48.96 10.7865 49.4672C10.6524 49.7254 10.5824 50.0121 10.5824 50.303C10.5824 50.594 10.6524 50.8807 10.7865 51.1389C11.3673 51.986 12.0842 52.7312 12.9115 53.3432C13.7133 53.9382 14.5888 54.4312 15.5125 54.8165C15.5125 54.8165 16.1642 54.8165 16.6742 54.9865V55.2699C16.1925 55.8054 15.6258 56.3975 15.2008 56.9075C14.7872 57.3892 14.4925 57.9587 14.3508 58.5792C14.3508 58.8059 15.0308 62.5402 15.3992 64.8579C13.5913 64.0263 11.6923 63.4091 9.741 63.019C8.77767 63.019 7.98434 62.849 7.27884 62.8207C5.47873 62.9189 3.67767 62.9189 1.87567 62.8207C1.63812 62.8112 1.40542 62.8898 1.22235 63.0415C1.03929 63.1932 0.918774 63.4072 0.884004 63.6424C0.86711 63.8772 0.939416 64.1097 1.08648 64.2936C1.23355 64.4774 1.44454 64.599 1.67734 64.634C4.22167 64.9457 5.525 64.804 7.1655 64.9457C7.90028 64.991 8.62656 65.0949 9.34434 65.2574C11.5387 65.9476 13.6689 66.8273 15.7108 67.8867C16.0182 67.989 16.3438 68.0242 16.6659 67.99C16.988 67.9558 17.299 67.8529 17.578 67.6884C17.744 67.577 17.8833 67.4303 17.9862 67.2589C18.089 67.0875 18.1528 66.8956 18.173 66.6967C18.2013 66.3567 18.2013 66.0167 18.173 65.6767C18.173 65.0279 17.9747 64.039 17.833 63.019C22.5845 63.189 28.8377 63.529 33.932 63.5574C36.6152 63.6565 39.3012 63.4469 41.939 62.934C44.7062 62.1441 47.3115 60.8702 49.6343 59.1714C50.5395 58.5442 51.3073 57.7391 51.8909 56.8052C52.4745 55.8714 52.8616 54.8284 53.0287 53.7399C53.1753 52.7927 52.941 51.826 52.377 51.051C52.0419 50.6299 51.6007 50.3056 51.0988 50.1114C50.5969 49.9172 50.0523 49.863 49.521 49.9489ZM38.7118 51.136C40.2789 50.2676 41.678 49.1257 42.8428 47.7644C43.3245 47.2005 44.0045 47.3989 44.5428 47.7644C44.9001 47.9967 45.2003 48.3066 45.4212 48.671C45.4212 48.926 45.7017 49.181 45.5883 49.436C45.3022 50.1869 44.8233 50.8499 44.2 51.3599C44.1125 51.4274 44.0174 51.4845 43.9167 51.5299L42.9845 51.7565C40.987 52.0172 38.9697 52.0965 36.958 51.9832C37.5624 51.7395 38.148 51.4562 38.7147 51.1332M47.7983 56.7885C45.798 58.3242 43.5483 59.5 41.1485 60.2707C38.7657 60.826 36.3262 61.1122 33.8782 61.1207C28.7272 61.319 22.3352 61.1207 17.5808 61.2624C17.4108 60.2424 17.2692 59.364 17.2408 59.0524C17.2125 58.7407 17.7508 58.3724 18.1192 57.9757C18.7576 57.3543 19.2856 56.6478 19.703 55.8564C19.8913 55.4935 19.9895 55.0907 19.9895 54.682C19.9895 54.2732 19.8913 53.8704 19.703 53.5075C19.5161 53.1556 19.2169 52.8764 18.853 52.7142C18.2696 52.4662 17.6632 52.2764 17.0425 52.1475C17.7603 52.0248 18.4686 51.8548 19.1675 51.6375C19.9523 51.3967 20.689 51.0142 21.3435 50.5099C21.8167 50.0792 22.1652 49.5324 22.3635 48.9232C22.6431 47.9561 22.9916 47.0135 23.409 46.0955C23.6357 45.7272 24.004 45.6139 24.599 45.8972C25.194 46.1805 25.3045 47.0589 25.4178 47.8777C25.4783 49.0639 25.6105 50.2426 25.8145 51.4137C25.9177 51.9065 26.1504 52.3628 26.4885 52.7358C26.8266 53.1088 27.258 53.385 27.7383 53.5359C30.2912 54.1564 32.895 54.5559 35.5187 54.7259C38.1622 54.9979 40.8255 54.9979 43.469 54.7259C45.254 54.4142 46.9483 53.6209 48.705 53.1959C49.0658 53.1014 49.4332 53.0353 49.8072 52.9975H49.9488V53.4509C49.6938 54.7995 48.9203 55.998 47.7955 56.7885M22.4712 33.0282C22.4415 33.2634 22.4415 33.5014 22.4712 33.7365V35.462C22.3923 35.5594 22.3352 35.6726 22.3037 35.7938C22.2722 35.9151 22.267 36.0417 22.2885 36.1652C22.31 36.2886 22.3576 36.4061 22.4282 36.5096C22.4988 36.6131 22.5907 36.7003 22.6978 36.7654C22.8073 36.8108 22.9249 36.8336 23.0434 36.8324C23.1619 36.8312 23.279 36.806 23.3875 36.7584C23.4961 36.7107 23.5938 36.6416 23.675 36.5551C23.7561 36.4687 23.8188 36.3667 23.8595 36.2554C24.2647 35.8131 24.6342 35.3394 24.9645 34.8387C25.1156 34.5535 25.2289 34.2513 25.3045 33.932C25.403 33.7346 25.4781 33.5264 25.5283 33.3115C25.542 33.1986 25.542 33.0845 25.5283 32.9715C26.5483 33.1415 27.591 33.1415 28.611 32.9715C29.625 32.9034 30.5851 32.4901 31.3316 31.8003C32.078 31.1106 32.5658 30.186 32.7137 29.1805C32.8008 28.5764 32.7409 27.9602 32.5392 27.3841C32.3374 26.808 31.9998 26.289 31.5548 25.8712C30.1608 24.8438 28.572 24.1111 26.8855 23.7179C26.2887 23.5395 25.7181 23.2833 25.1883 22.9557C25.0282 22.876 24.8886 22.7604 24.7805 22.6178C24.6724 22.4753 24.5986 22.3098 24.565 22.134C24.395 20.7202 25.4433 20.1535 26.69 20.043C28.263 20.0103 29.816 20.4008 31.1865 21.1735C31.3605 21.2823 31.5698 21.3194 31.7705 21.2772C31.9713 21.2349 32.1478 21.1165 32.2632 20.9469C32.3454 20.8697 32.4088 20.7747 32.4485 20.6692C32.4882 20.5636 32.5032 20.4504 32.4923 20.3382C32.4813 20.2259 32.4447 20.1177 32.3854 20.0219C32.326 19.926 32.2454 19.845 32.1498 19.7852C31.4324 19.2697 30.639 18.8692 29.7982 18.598C29.8797 18.5085 29.9554 18.4139 30.0248 18.3147C30.1476 18.1069 30.2515 17.8897 30.3365 17.663C30.3365 17.4364 30.3365 17.2097 30.4782 16.9575C30.6198 16.7025 30.4782 15.8242 30.4782 15.2292C30.5733 15.0589 30.611 14.8625 30.5857 14.669C30.5603 14.4756 30.4732 14.2955 30.3374 14.1555C30.2015 14.0155 30.0241 13.923 29.8315 13.8919C29.6389 13.8607 29.4414 13.8925 29.2683 13.9825C29.1534 14.0434 29.053 14.1284 28.9738 14.2315C28.8946 14.3347 28.8385 14.4536 28.8093 14.5804C28.4041 15.0226 28.0346 15.4963 27.7043 15.997C27.5688 16.2115 27.4558 16.4394 27.3672 16.677C27.2096 17.0913 27.1513 17.5367 27.1972 17.9775C26.5172 17.8925 25.8381 17.8925 25.16 17.9775C24.6532 18.0442 24.1648 18.2111 23.7231 18.4683C23.2815 18.7256 22.8954 19.0682 22.5874 19.4761C22.2794 19.884 22.0557 20.3491 21.9292 20.8444C21.8027 21.3396 21.776 21.8551 21.8507 22.3607C21.8483 22.9643 21.9909 23.5596 22.2665 24.0965C22.5421 24.6334 22.9427 25.0963 23.4345 25.4462C24.8566 26.2827 26.3776 26.9385 27.9622 27.3984C28.8972 27.7384 29.8293 27.9934 29.7443 29.0417C29.6593 30.0872 28.441 30.5944 27.1688 30.736C25.6237 30.8469 24.0777 30.5334 22.6978 29.8294C22.3105 29.597 21.9734 29.2897 21.7062 28.9255C21.4278 28.5011 21.1825 28.0559 20.9723 27.5939C20.8787 27.3926 20.7145 27.2328 20.5108 27.1445C20.3072 27.0562 20.0782 27.0458 19.8673 27.115C19.651 27.2145 19.4826 27.3951 19.3983 27.6177C19.314 27.8404 19.3207 28.0873 19.4168 28.305C19.6718 29.0247 20.0118 29.7028 20.4368 30.3394C20.7598 30.8125 21.1735 31.2149 21.6523 31.5294C22.0547 31.8222 22.4891 32.0583 22.9557 32.2377C22.7526 32.4739 22.5899 32.7419 22.474 33.031" fill="#020202"/>
<path fill-rule="evenodd" clip-rule="evenodd" d="M22.8962 9.34717C20.0218 9.82853 17.3198 11.042 15.0504 12.8707C12.781 14.6994 11.0209 17.0816 9.93938 19.788C8.69851 22.5869 8.35862 25.7024 8.96676 28.703C9.57491 31.7036 11.101 34.4409 13.3337 36.5358C14.161 37.3424 15.0384 38.0885 15.9659 38.7742C16.9191 39.4648 17.9546 40.034 19.0485 40.4685C20.3292 40.9445 21.675 41.2193 23.0379 41.2902C25.007 41.3667 26.979 41.2448 28.9227 40.9218C29.1233 40.887 29.3028 40.7764 29.4241 40.6129C29.5454 40.4494 29.5992 40.2456 29.5744 40.0435C29.5637 39.9403 29.5321 39.8404 29.4816 39.7498C29.4311 39.6592 29.3627 39.5798 29.2805 39.5164C29.1984 39.4531 29.1042 39.4071 29.0037 39.3813C28.9032 39.3555 28.7986 39.3504 28.696 39.3663C26.8713 39.5514 25.0326 39.5514 23.2079 39.3663C22.06 39.2137 20.9375 38.9088 19.8702 38.4597C18.9448 38.0027 18.0796 37.4327 17.2947 36.7625C16.5043 36.104 15.7664 35.385 15.0875 34.612C13.328 32.8118 12.156 30.5202 11.7265 28.0398C11.297 25.5594 11.6302 23.0071 12.682 20.7202C13.6974 18.3836 15.2529 16.3214 17.2208 14.7033C19.1886 13.0852 21.5125 11.9574 24.0012 11.4127C27.1548 10.8198 30.4134 11.1747 33.3654 12.4327C36.04 13.2033 38.3549 14.8977 39.9019 17.2125C40.5252 17.8075 41.5452 17.2125 41.4602 16.2208C35.938 7.395 24.99 8.98166 22.8934 9.35M40.1002 31.1043C39.6752 31.841 39.2219 32.521 38.7402 33.1982C38.2585 33.8782 37.7202 34.5015 37.1564 35.0965C35.8347 36.5485 34.1989 37.6794 32.3737 38.403C32.2599 38.429 32.1527 38.4782 32.0588 38.5475C31.9649 38.6168 31.8862 38.7047 31.8278 38.8057C31.7693 38.9067 31.7322 39.0187 31.7189 39.1346C31.7056 39.2506 31.7163 39.368 31.7504 39.4797C31.7797 39.5945 31.832 39.7022 31.9041 39.7963C31.9762 39.8904 32.0666 39.969 32.1698 40.0272C32.2731 40.0854 32.387 40.1222 32.5048 40.1352C32.6227 40.1482 32.7419 40.1373 32.8554 40.103C36.1631 39.4745 39.124 37.6512 41.174 34.9803C41.7785 34.1794 42.2696 33.3115 42.6474 32.3765C43.2424 30.9457 43.6079 29.427 43.7212 27.88L41.8795 27.0867C41.4394 28.492 40.8482 29.8312 40.1002 31.1043Z" fill="#F5B9DB"/>
<path fill-rule="evenodd" clip-rule="evenodd" d="M65.4216 18.768C65.3198 18.7082 65.207 18.6694 65.09 18.6541C64.9729 18.6389 64.8539 18.6473 64.7402 18.6791C64.6265 18.7108 64.5203 18.7652 64.428 18.8389C64.3358 18.9126 64.2593 19.0041 64.2033 19.108C63.8107 19.7852 63.282 20.3737 62.6506 20.8364C62.0291 21.2981 61.3131 21.6165 60.5539 21.7685C60.1856 21.8101 59.8182 21.8101 59.4518 21.7685C57.5894 21.3756 55.696 21.148 53.7936 21.0885C51.6998 21.3435 48.1354 23.5507 45.1066 24.089C44.4362 24.3388 43.6962 24.3257 43.0351 24.0524C42.3739 23.7792 41.8407 23.2659 41.5423 22.6157C41.0606 21.709 41.9106 21.284 42.7606 20.7202C44.8516 19.3602 47.7671 18.0625 48.8976 16.0537C49.2598 15.4707 49.4794 14.8104 49.5385 14.1266C49.5975 13.4428 49.4945 12.7547 49.2376 12.1182C48.0476 8.75219 45.9849 7.82003 43.8628 8.15719C42.8501 8.27409 41.8767 8.61718 41.0145 9.16107C40.1523 9.70497 39.4234 10.4357 38.8818 11.2994C38.7754 11.4039 38.6984 11.5346 38.6586 11.6784C38.6187 11.8221 38.6174 11.9738 38.6547 12.1182C38.692 12.2627 38.7667 12.3947 38.8712 12.5011C38.9757 12.6076 39.1064 12.6846 39.2501 12.7245C39.4231 12.7721 39.6067 12.7638 39.7747 12.7007C39.9426 12.6376 40.0863 12.5229 40.1851 12.3732C40.8651 11.4155 41.8709 10.7327 43.0128 10.4494C44.5994 9.82603 46.1549 10.4494 46.8604 12.801C47.3138 14.4387 46.0388 15.2037 44.795 16.1075C42.364 17.9209 41.7406 17.4109 39.4768 19.5047C38.845 20.04 38.4344 20.7908 38.3245 21.6115C38.2146 22.4323 38.4132 23.2646 38.8818 23.9474C41.0068 27.71 45.5883 27.3984 49.521 25.5312C50.975 24.7032 52.5114 24.029 54.1053 23.5195C55.9044 23.5025 57.7036 23.6442 59.4801 23.9445C60.0354 23.954 60.5832 23.8879 61.1234 23.7462C62.1604 23.4997 63.1294 23.0152 63.9511 22.3324C64.7646 21.7015 65.4308 20.9009 65.9033 19.9864C65.9588 19.8758 65.9903 19.7548 65.9958 19.6313C66.0012 19.5077 65.9806 19.3844 65.9351 19.2694C65.8896 19.1544 65.8204 19.0503 65.7319 18.9639C65.6434 18.8775 65.5377 18.8107 65.4216 18.768Z" fill="#020202"/>
<path fill-rule="evenodd" clip-rule="evenodd" d="M66.6116 10.9027L59.4801 7.11169C57.443 5.86502 55.5191 4.05452 53.482 2.61236C51.9943 1.4872 50.3028 0.660714 48.501 0.178523C46.8975 -0.131663 45.2418 -0.0351231 43.6852 0.459323C42.1286 0.95377 40.7207 1.83036 39.5901 3.00902C38.0703 4.4736 36.7223 6.10671 35.5725 7.87669C34.6091 9.37552 36.0541 10.1377 37.0741 9.06386C38.3813 7.60941 39.7668 6.23241 41.2306 4.93286C42.0988 4.10581 43.1557 3.50319 44.3097 3.17731C45.4636 2.85142 46.6796 2.81214 47.8521 3.06286C49.6813 3.61065 51.3965 4.4841 52.9153 5.64119C54.6605 6.92742 56.4746 8.1173 58.3496 9.20552L65.8466 12.5149C66.0579 12.6149 66.2996 12.6294 66.5213 12.5555C66.743 12.4816 66.9277 12.3249 67.0366 12.1182C67.135 11.8997 67.1458 11.6518 67.0667 11.4256C66.9876 11.1994 66.8247 11.0122 66.6116 10.9027Z" fill="#020202"/>
</g>
<defs>
<clipPath id="clip0_14_21">
<rect width="68" height="68" fill="white"/>
</clipPath>
</defs>
</svg>
