<svg width="22" height="22" viewBox="0 0 22 22" fill="none" xmlns="http://www.w3.org/2000/svg">
<path d="M11 1.83334C9.78442 1.83334 8.61864 2.31623 7.75909 3.17577C6.89955 4.03531 6.41667 5.2011 6.41667 6.41668C6.41667 7.63225 6.89955 8.79804 7.75909 9.65758C8.61864 10.5171 9.78442 11 11 11C12.2156 11 13.3814 10.5171 14.2409 9.65758C15.1004 8.79804 15.5833 7.63225 15.5833 6.41668C15.5833 5.2011 15.1004 4.03531 14.2409 3.17577C13.3814 2.31623 12.2156 1.83334 11 1.83334ZM3.66667 20.1667H18.3333C18.8375 20.1667 19.25 19.7542 19.25 19.25V18.3333C19.25 14.795 16.3717 11.9167 12.8333 11.9167H9.16667C5.62833 11.9167 2.75 14.795 2.75 18.3333V19.25C2.75 19.7542 3.1625 20.1667 3.66667 20.1667Z" fill="black"/>
</svg>
