<svg width="41" height="41" viewBox="0 0 41 41" fill="none" xmlns="http://www.w3.org/2000/svg">
<g clip-path="url(#clip0_75_75)">
<path d="M37.5321 23.0965V23.0281C39.6504 21.149 41 18.4156 41 15.3748C41 9.72021 36.4046 5.12479 30.75 5.12479C30.3058 5.12479 29.8617 5.15896 29.4175 5.22729C28.5308 3.64087 27.237 2.3197 25.6694 1.40005C24.1019 0.480405 22.3174 -0.00442123 20.5 -0.00442123C18.6826 -0.00442123 16.8981 0.480405 15.3306 1.40005C13.763 2.3197 12.4692 3.64087 11.5825 5.22729C11.1383 5.15896 10.6942 5.12479 10.25 5.12479C4.59542 5.12479 0 9.72021 0 15.3748C0 18.4156 1.34958 21.149 3.45083 23.0281V23.0965C2.36801 24.0563 1.50069 25.2345 0.905915 26.5536C0.311142 27.8727 0.00239999 29.3028 0 30.7498C0 36.4044 4.59542 40.9998 10.25 40.9998C12.6246 40.9998 14.8112 40.1798 16.5537 38.8131C17.8179 39.1206 19.1333 39.2915 20.5 39.2915C21.8667 39.2915 23.1821 39.1206 24.4463 38.8131C26.1888 40.1798 28.3754 40.9998 30.75 40.9998C36.4046 40.9998 41 36.4044 41 30.7498C41 27.709 39.6504 24.9756 37.5321 23.0965ZM20.5 35.8748C12.9663 35.8748 6.83333 29.7419 6.83333 22.2081C6.83333 15.8531 11.2067 10.506 17.0833 8.98563V9.07104C17.0833 14.7769 21.73 19.4235 27.4358 19.4235C29.5883 19.4235 31.6213 18.7573 33.3296 17.5615C33.8592 19.0306 34.1667 20.5852 34.1667 22.2081C34.1667 29.7419 28.0338 35.8748 20.5 35.8748Z" fill="black"/>
<path d="M15.375 26.0521C16.5544 26.0521 17.5105 25.096 17.5105 23.9167C17.5105 22.7373 16.5544 21.7812 15.375 21.7812C14.1957 21.7812 13.2396 22.7373 13.2396 23.9167C13.2396 25.096 14.1957 26.0521 15.375 26.0521Z" fill="black"/>
<path d="M25.625 26.0521C26.8044 26.0521 27.7605 25.096 27.7605 23.9167C27.7605 22.7373 26.8044 21.7812 25.625 21.7812C24.4457 21.7812 23.4896 22.7373 23.4896 23.9167C23.4896 25.096 24.4457 26.0521 25.625 26.0521Z" fill="black"/>
</g>
<defs>
<clipPath id="clip0_75_75">
<rect width="41" height="41" fill="white"/>
</clipPath>
</defs>
</svg>
