<svg width="46" height="46" viewBox="0 0 46 46" fill="none" xmlns="http://www.w3.org/2000/svg">
<path d="M42.1667 26.8333H40.25C40.25 19.4158 34.2509 13.4167 26.8334 13.4167H24.9167V10.9825C25.4996 10.646 25.9836 10.1619 26.32 9.57898C26.6565 8.99605 26.8335 8.33481 26.8334 7.66176C26.8332 6.9887 26.6558 6.32755 26.319 5.7448C25.9823 5.16204 25.498 4.67822 24.915 4.34199C24.3319 4.00576 23.6706 3.82898 22.9976 3.82941C22.3245 3.82984 21.6634 4.00747 21.0808 4.34445C20.4982 4.68143 20.0145 5.16587 19.6785 5.74905C19.3425 6.33224 19.166 6.99361 19.1667 7.66667C19.1667 9.085 19.9334 10.3308 21.0834 10.9825V13.4167H19.1667C11.7492 13.4167 5.75002 19.4158 5.75002 26.8333H3.83335C2.77919 26.8333 1.91669 27.6958 1.91669 28.75V34.5C1.91669 35.5542 2.77919 36.4167 3.83335 36.4167H5.75002V38.3333C5.75002 39.35 6.15389 40.325 6.87278 41.0439C7.59167 41.7628 8.56669 42.1667 9.58335 42.1667H36.4167C38.5442 42.1667 40.25 40.4608 40.25 38.3333V36.4167H42.1667C43.2209 36.4167 44.0834 35.5542 44.0834 34.5V28.75C44.0834 27.6958 43.2209 26.8333 42.1667 26.8333ZM18.5917 29.6125L17.1925 31.0117L14.375 33.8292L10.1584 29.6125C9.39169 28.8458 9.39169 27.5808 10.1584 26.8333C10.9442 26.0283 12.19 26.0283 12.9759 26.8333L14.375 28.2133L15.7742 26.8333C16.56 26.0283 17.8059 26.0283 18.5917 26.8333C19.3584 27.5808 19.3584 28.8458 18.5917 29.6125ZM35.8417 29.6125L34.4425 31.0117L31.625 33.8292L27.4084 29.6125C26.6417 28.8458 26.6417 27.5808 27.4084 26.8333C28.1942 26.0283 29.44 26.0283 30.2259 26.8333L31.625 28.2133L33.0242 26.8333C33.81 26.0283 35.0559 26.0283 35.8417 26.8333C36.6084 27.5808 36.6084 28.8458 35.8417 29.6125Z" fill="#DC6AAB"/>
</svg>
