<svg width="44" height="44" viewBox="0 0 44 44" fill="none" xmlns="http://www.w3.org/2000/svg">
<path d="M12.8334 8.85501C12.8334 11.6912 15.9977 14.6813 18.6084 16.665C20.0732 17.776 20.8047 18.3333 22 18.3333C23.1954 18.3333 23.9269 17.776 25.3917 16.665C28.0024 14.6795 31.1667 11.6893 31.1667 8.85501C31.1667 3.74001 26.125 1.82785 22 5.78051C17.875 1.82785 12.8334 3.74001 12.8334 8.85501ZM11.4767 39.2113H11C9.27121 39.2113 8.40771 39.2113 7.87054 38.6742C7.33337 38.1407 7.33337 37.2753 7.33337 35.5465V33.5078C7.33337 32.5582 7.33337 32.0833 7.57721 31.658C7.82104 31.2327 8.18954 31.02 8.92654 30.591C13.7775 27.7695 20.6654 26.1818 25.2615 28.9227C25.5708 29.1072 25.8458 29.3321 26.0865 29.5973C26.3332 29.867 26.5233 30.1833 26.6455 30.5277C26.7678 30.8721 26.8196 31.2375 26.7981 31.6023C26.7766 31.9671 26.682 32.3239 26.5201 32.6515C26.3582 32.9792 26.1322 33.271 25.8555 33.5097C25.6351 33.719 25.3661 33.8702 25.0727 33.9497C25.2927 33.924 25.5035 33.8953 25.7052 33.8635C27.3754 33.5977 28.7779 32.703 30.0612 31.7332L33.3759 29.2307C33.9675 28.8013 34.6798 28.5701 35.4109 28.5701C36.1419 28.5701 36.8542 28.8013 37.4459 29.2307C38.4964 30.0245 38.819 31.3317 38.1535 32.3987C37.378 33.6417 36.2854 35.2312 35.2367 36.2028C34.188 37.1745 32.6224 38.0435 31.3464 38.6595C29.931 39.3433 28.369 39.7357 26.7795 39.9942C23.5565 40.5148 20.1979 40.4342 17.0079 39.7778C15.188 39.4032 13.3348 39.2122 11.4767 39.2113Z" fill="black"/>
</svg>
