<svg width="44" height="44" viewBox="0 0 44 44" fill="none" xmlns="http://www.w3.org/2000/svg">
<path d="M4.40002 33.2475V11.9281C4.40002 10.3331 6.0569 9.27436 7.58315 9.72811C13.6125 11.5294 17.875 10.1062 22.165 8.67624C26.5994 7.19811 31.0613 5.71311 37.5169 7.77561C38.7888 8.18124 39.6 9.41186 39.6 10.7525V32.0719C39.6 33.6669 37.9431 34.7256 36.4238 34.2719C30.3944 32.4706 26.125 33.8937 21.8419 35.3237C17.4075 36.8019 12.9457 38.2869 6.49002 36.2244C5.21815 35.8187 4.4069 34.5881 4.4069 33.2475H4.40002ZM27.5 22C27.5 18.3562 25.0388 15.4 22 15.4C18.9613 15.4 16.5 18.3562 16.5 22C16.5 25.6437 18.9613 28.6 22 28.6C25.0388 28.6 27.5 25.6437 27.5 22ZM12.65 32.835C12.9525 32.835 13.1931 32.5737 13.145 32.2781C12.8288 30.3669 11.2888 28.875 9.35002 28.6344C9.04752 28.6 8.80002 28.8475 8.80002 29.15V31.8931C8.80002 32.1406 8.96502 32.3606 9.21252 32.4225C10.4431 32.7112 11.5706 32.8419 12.65 32.8419V32.835ZM34.5469 29.3219C34.8906 29.3769 35.2 29.1156 35.2 28.7719V25.8431C35.2 25.5406 34.9525 25.2862 34.65 25.3275C32.9175 25.5406 31.4944 26.7644 30.9925 28.3937C30.8963 28.7169 31.1507 29.0194 31.4875 29.0262C32.4638 29.0537 33.4813 29.1431 34.54 29.3219H34.5469ZM35.2 14.85V12.1069C35.2 11.8594 35.0282 11.6394 34.7875 11.5775C33.5569 11.2887 32.4294 11.1581 31.35 11.1581C31.0475 11.1581 30.8069 11.4194 30.855 11.715C31.1713 13.6262 32.7113 15.1181 34.65 15.3587C34.9525 15.3931 35.2 15.1456 35.2 14.8431V14.85ZM13.0075 15.5994C13.1038 15.2762 12.8494 14.9737 12.5125 14.9669C11.5363 14.9394 10.5188 14.85 9.46002 14.6712C9.11627 14.6162 8.8069 14.8775 8.8069 15.2212L8.80002 18.15C8.80002 18.4525 9.04752 18.7069 9.35002 18.6656C11.0825 18.4525 12.5056 17.2287 13.0075 15.5994Z" fill="black"/>
</svg>
