<svg width="63" height="63" viewBox="0 0 63 63" fill="none" xmlns="http://www.w3.org/2000/svg">
<path fill-rule="evenodd" clip-rule="evenodd" d="M37.5926 38.766C35.7544 38.1806 33.8146 37.984 31.8963 38.1885C31.1699 38.2177 30.4428 38.1461 29.736 37.9759C29.4969 37.9362 29.2702 37.8419 29.0735 37.7003C28.8768 37.5587 28.7154 37.3736 28.602 37.1595C27.8407 35.5504 28.8382 34.5214 30.2636 33.8362C32.0033 33.137 33.9099 32.9636 35.7472 33.3375C35.9393 33.3869 36.143 33.3594 36.3151 33.2608C36.4872 33.1623 36.614 33.0005 36.6686 32.8099C36.7189 32.6178 36.6921 32.4137 36.594 32.2411C36.4959 32.0685 36.3343 31.941 36.1436 31.8859C35.0985 31.5773 34.015 31.4183 32.9253 31.4134L33.0828 30.8831C33.1108 30.6119 33.1108 30.3397 33.0828 30.0667C33.1091 29.8042 33.1091 29.5409 33.0828 29.2766C32.6891 26.6385 32.4266 26.5072 31.8727 26.481C31.3188 26.4547 30.9487 26.6385 30.4211 29.1191C30.3983 29.3904 30.3983 29.6616 30.4211 29.9329C30.3948 30.2164 30.3948 30.4981 30.4211 30.7781C30.4771 31.0459 30.5471 31.3101 30.6311 31.5709C29.8251 31.7223 29.0447 31.9875 28.3132 32.3584C27.7878 32.5894 27.3151 32.9254 26.9241 33.3456C26.5331 33.7659 26.232 34.2615 26.0393 34.8022C25.8466 35.3429 25.7664 35.9173 25.8035 36.4901C25.8406 37.0629 25.9943 37.6221 26.2552 38.1334C26.4757 38.7209 26.8282 39.25 27.2857 39.6796C27.7431 40.1093 28.2931 40.4281 28.8933 40.6114C30.7046 40.9789 32.5552 41.1101 34.4032 41.0051C35.6685 41.0051 36.855 41.0051 37.17 42.3255C37.485 43.6432 36.3273 44.7247 34.8495 45.3836C33.2011 46.1352 31.3698 46.3915 29.5785 46.1212C29.067 46.008 28.5833 45.7938 28.1557 45.4912C27.6929 45.1115 27.252 44.7057 26.8353 44.2759C26.6779 44.1188 26.4645 44.0305 26.2421 44.0305C26.0197 44.0305 25.8063 44.1188 25.6488 44.2759C25.5678 44.352 25.5032 44.4439 25.459 44.5459C25.4149 44.6479 25.3921 44.7579 25.3921 44.8691C25.3921 44.9803 25.4149 45.0903 25.459 45.1923C25.5032 45.2944 25.5678 45.3863 25.6488 45.4624C26.1948 46.1344 26.81 46.732 27.4942 47.2552C28.0061 47.6175 28.5783 47.8852 29.1821 48.0454C29.8033 48.2169 30.436 48.3131 31.08 48.3341V48.7042C31.0537 48.9772 31.0537 49.2502 31.08 49.5232C31.0537 49.7857 31.0537 50.0491 31.08 50.3134C31.4763 52.9489 31.7388 53.0827 32.2665 53.109C32.7941 53.1352 33.2167 52.9777 33.7443 50.4709V49.6282C33.7706 49.3465 33.7706 49.0656 33.7443 48.7856C33.7011 48.6071 33.6485 48.431 33.5868 48.258C34.8153 48.0795 36.0071 47.7067 37.1175 47.1502C38.1138 46.7166 38.9358 45.9613 39.4522 45.0052C39.9685 44.0492 40.1493 42.9475 39.9656 41.8766C39.8705 41.198 39.6022 40.5553 39.1865 40.0105C38.7709 39.4657 38.222 39.0371 37.5926 38.766Z" fill="#81B1F4"/>
<path fill-rule="evenodd" clip-rule="evenodd" d="M56.574 34.7865C56.1777 32.8507 55.5401 30.9723 54.6761 29.1952C53.6186 26.9851 52.3473 24.8839 50.8803 22.9215C49.5288 21.1203 47.9712 19.4835 46.2393 18.0443C46.7766 17.8447 47.3042 17.6173 47.8222 17.3617C47.925 17.3188 48.0181 17.2559 48.0963 17.1766C48.1745 17.0973 48.2362 17.0033 48.2777 16.9C48.3192 16.7966 48.3398 16.6861 48.3382 16.5747C48.3366 16.4634 48.3129 16.3535 48.2685 16.2514C48.1763 16.0433 48.006 15.8798 47.7943 15.7963C47.5826 15.7128 47.3465 15.716 47.1371 15.8051C46.4756 16.0676 45.7984 16.2864 45.1054 16.4614C45.9628 15.1891 46.7101 13.8539 47.3471 12.4556C48.1057 10.7992 48.5284 9.00638 48.5861 7.18463C48.5761 6.03343 48.372 4.89217 47.9823 3.80887C47.6835 2.96704 47.164 2.22093 46.4782 1.6485C46.0362 1.41183 45.5425 1.288 45.041 1.288C44.5396 1.288 44.0459 1.41183 43.6038 1.6485C42.3123 2.121 40.5982 3.15 39.2017 3.75638C38.7266 3.94012 38.3827 4.17637 38.1202 4.12388C37.8577 4.07137 37.6477 3.57262 37.4088 3.20512C36.9906 2.48328 36.5046 1.80295 35.9572 1.17338C35.5633 0.75587 35.0881 0.423531 34.5607 0.196875C33.7654 -0.065625 32.907 -0.065625 32.109 0.196875C30.9618 0.51975 29.8777 1.02638 28.8933 1.701C26.2578 3.59888 26.6253 2.9925 25.2026 2.25225C23.937 1.41725 22.4912 0.894552 20.9842 0.727125C19.7715 0.727125 18.585 1.57238 18.7687 4.20788L19.005 6.21075L19.5877 9.00638C19.7505 9.65913 19.9517 10.3005 20.1915 10.9305C20.426 11.5658 20.6902 12.1896 20.9842 12.8021C21.4445 13.8294 21.9721 14.8225 22.5671 15.7815C22.7771 16.1227 23.0396 16.4115 23.2496 16.7291H22.3046C21.2762 16.4711 20.2828 16.0895 19.3462 15.5925C19.2558 15.5449 19.1561 15.5175 19.0541 15.512C18.9521 15.5065 18.8501 15.5232 18.7551 15.5608C18.6601 15.5985 18.5743 15.6562 18.5038 15.7301C18.4332 15.804 18.3794 15.8923 18.3461 15.9889C18.2988 16.0736 18.2688 16.1668 18.2577 16.2632C18.2467 16.3596 18.2548 16.4572 18.2817 16.5504C18.3085 16.6436 18.3535 16.7306 18.4141 16.8063C18.4748 16.882 18.5498 16.945 18.6348 16.9916C18.9936 17.2051 19.3628 17.3976 19.7426 17.5691C17.7458 19.4346 15.8646 21.4121 14.0988 23.5016C12.266 25.6502 10.6095 27.9431 9.14547 30.3581C8.41767 31.5287 7.7999 32.7643 7.3001 34.0489C6.80369 35.3768 6.41567 36.7428 6.13985 38.1334C5.45925 40.8758 5.44139 43.7408 6.08775 46.4915C6.7341 49.2421 8.0261 51.7994 9.85685 53.9516C13.6974 58.0024 18.6976 60.7652 24.171 61.8607C31.794 63.8558 39.8685 63.2152 47.082 60.0416C49.4778 58.8207 51.5778 57.0909 53.235 54.9734C54.8923 52.8559 56.0668 50.4018 56.6763 47.7829C56.9913 46.5876 57.2022 45.3749 57.309 44.1446C57.4039 42.925 57.4039 41.6998 57.309 40.4801C57.2162 38.5621 56.9712 36.666 56.574 34.7865ZM23.9925 14.9336C23.4649 14.0209 23.0069 13.0697 22.6222 12.0881C22.4122 11.5343 22.1996 10.9279 22.0421 10.3477C21.8846 9.76762 21.7008 9.135 21.567 8.52863L21.1732 5.89312V4.074C21.1732 2.94 20.9081 2.835 22.4621 3.65138C23.4123 4.15013 24.3626 4.81163 25.1002 5.20538C25.7276 5.55188 26.4416 5.70412 27.1556 5.65425C28.1048 5.48316 29.0047 5.10494 29.7911 4.5465C30.6265 3.91087 31.5083 3.33876 32.4292 2.835C32.6008 2.72906 32.7917 2.65826 32.9909 2.62672C33.1901 2.59517 33.3935 2.60351 33.5895 2.65125C33.9832 2.80875 34.2195 3.22875 34.5108 3.6225C34.9203 4.305 35.3771 4.956 35.8811 5.5755C36.3011 6.08213 36.8602 6.44963 37.4902 6.63075C38.391 6.76984 39.3128 6.62294 40.1257 6.21075C44.1078 4.41525 45.0292 2.41237 45.8745 5.04787C46.102 5.75837 46.242 6.48812 46.2945 7.23712C46.3202 8.79197 46.0244 10.3354 45.4256 11.7705C44.6973 13.6289 43.7593 15.3983 42.63 17.0441C41.5511 17.2016 40.4171 17.3329 39.2831 17.4116H33.1931C31.164 17.4116 29.001 17.4116 27.0768 17.0966H25.284C24.8153 16.3991 24.3842 15.6771 23.9925 14.9336ZM54.9675 43.9346C54.8629 45.0503 54.6519 46.1535 54.3375 47.229C53.7769 49.5033 52.7233 51.6267 51.2514 53.4489C49.7794 55.271 47.925 56.7474 45.8193 57.7736C39.1606 60.6398 31.7282 61.1699 24.7301 59.2778C19.7966 58.3543 15.2676 55.9326 11.76 52.3425C10.1194 50.5053 8.94066 48.3033 8.3216 45.9193C7.70255 43.5353 7.66102 41.038 8.20047 38.6348C8.64672 36.0491 9.53922 33.5606 10.836 31.2795C12.1749 28.8812 13.7096 26.5975 15.4245 24.4519C17.1404 22.3245 18.9988 20.3162 20.9868 18.4406C20.9868 18.4406 20.9869 18.2306 21.1444 18.2306C21.3701 18.3199 21.5985 18.3986 21.8295 18.4669C23.457 18.9534 25.1098 19.3314 26.7881 19.6009C28.1321 19.8109 29.4236 20.0471 30.9776 20.1521C33.1231 20.3376 35.2668 20.3376 37.4088 20.1521C39.8375 19.9567 42.2353 19.4801 44.5541 18.732C44.5926 18.837 44.6451 18.9333 44.7116 19.0208C46.482 20.5044 48.0588 22.2047 49.4051 24.0817C50.757 25.9796 51.9225 28.0009 52.8858 30.1192C53.6357 31.8048 54.1761 33.5759 54.495 35.3929C54.8432 37.2041 55.0445 39.032 55.0987 40.8765C55.1267 41.9247 55.083 42.9704 54.9675 44.0134V43.9346Z" fill="#020202"/>
</svg>
